<svg width="203" height="64" viewBox="0 0 203 64" fill="none" xmlns="http://www.w3.org/2000/svg">
<rect width="203" height="64" rx="10" fill="#FFB100"/>
<path d="M58.125 25.125H41.875C41.5293 25.125 41.25 25.4043 41.25 25.75V38.25C41.25 38.5957 41.5293 38.875 41.875 38.875H58.125C58.4707 38.875 58.75 38.5957 58.75 38.25V25.75C58.75 25.4043 58.4707 25.125 58.125 25.125ZM56.5469 27.252L50.3848 32.0469C50.2324 32.166 50.0195 32.166 49.8672 32.0469L43.7031 27.252C43.6799 27.234 43.6628 27.2093 43.6544 27.1812C43.6459 27.1531 43.6465 27.123 43.6559 27.0952C43.6654 27.0674 43.6834 27.0433 43.7072 27.0263C43.7311 27.0092 43.7597 27 43.7891 27H56.4609C56.4903 27 56.5189 27.0092 56.5428 27.0263C56.5667 27.0433 56.5846 27.0674 56.5941 27.0952C56.6035 27.123 56.6041 27.1531 56.5956 27.1812C56.5872 27.2093 56.5701 27.234 56.5469 27.252V27.252Z" fill="white"/>
<path d="M73.36 26.54V31.2H78.44V32.7H73.36V37.5H79.04V39H71.54V25.04H79.04V26.54H73.36ZM94.9739 27.84C95.8272 27.84 96.5872 28.02 97.2539 28.38C97.9206 28.7267 98.4472 29.2533 98.8339 29.96C99.2206 30.6667 99.4139 31.5267 99.4139 32.54V39H97.6139V32.8C97.6139 31.7067 97.3406 30.8733 96.7939 30.3C96.2606 29.7133 95.5339 29.42 94.6139 29.42C93.6672 29.42 92.9139 29.7267 92.3539 30.34C91.7939 30.94 91.5139 31.8133 91.5139 32.96V39H89.7139V32.8C89.7139 31.7067 89.4406 30.8733 88.8939 30.3C88.3606 29.7133 87.6339 29.42 86.7139 29.42C85.7672 29.42 85.0139 29.7267 84.4539 30.34C83.8939 30.94 83.6139 31.8133 83.6139 32.96V39H81.7939V28.04H83.6139V29.62C83.9739 29.0467 84.4539 28.6067 85.0539 28.3C85.6672 27.9933 86.3406 27.84 87.0739 27.84C87.9939 27.84 88.8072 28.0467 89.5139 28.46C90.2206 28.8733 90.7472 29.48 91.0939 30.28C91.4006 29.5067 91.9072 28.9067 92.6139 28.48C93.3206 28.0533 94.1072 27.84 94.9739 27.84ZM101.719 33.48C101.719 32.36 101.946 31.38 102.399 30.54C102.853 29.6867 103.473 29.0267 104.259 28.56C105.059 28.0933 105.946 27.86 106.919 27.86C107.879 27.86 108.713 28.0667 109.419 28.48C110.126 28.8933 110.653 29.4133 110.999 30.04V28.04H112.839V39H110.999V36.96C110.639 37.6 110.099 38.1333 109.379 38.56C108.673 38.9733 107.846 39.18 106.899 39.18C105.926 39.18 105.046 38.94 104.259 38.46C103.473 37.98 102.853 37.3067 102.399 36.44C101.946 35.5733 101.719 34.5867 101.719 33.48ZM110.999 33.5C110.999 32.6733 110.833 31.9533 110.499 31.34C110.166 30.7267 109.713 30.26 109.139 29.94C108.579 29.6067 107.959 29.44 107.279 29.44C106.599 29.44 105.979 29.6 105.419 29.92C104.859 30.24 104.413 30.7067 104.079 31.32C103.746 31.9333 103.579 32.6533 103.579 33.48C103.579 34.32 103.746 35.0533 104.079 35.68C104.413 36.2933 104.859 36.7667 105.419 37.1C105.979 37.42 106.599 37.58 107.279 37.58C107.959 37.58 108.579 37.42 109.139 37.1C109.713 36.7667 110.166 36.2933 110.499 35.68C110.833 35.0533 110.999 34.3267 110.999 33.5ZM116.855 26.26C116.508 26.26 116.215 26.14 115.975 25.9C115.735 25.66 115.615 25.3667 115.615 25.02C115.615 24.6733 115.735 24.38 115.975 24.14C116.215 23.9 116.508 23.78 116.855 23.78C117.188 23.78 117.468 23.9 117.695 24.14C117.935 24.38 118.055 24.6733 118.055 25.02C118.055 25.3667 117.935 25.66 117.695 25.9C117.468 26.14 117.188 26.26 116.855 26.26ZM117.735 28.04V39H115.915V28.04H117.735ZM122.657 24.2V39H120.837V24.2H122.657ZM144.271 27.84C145.124 27.84 145.884 28.02 146.551 28.38C147.217 28.7267 147.744 29.2533 148.131 29.96C148.517 30.6667 148.711 31.5267 148.711 32.54V39H146.911V32.8C146.911 31.7067 146.637 30.8733 146.091 30.3C145.557 29.7133 144.831 29.42 143.911 29.42C142.964 29.42 142.211 29.7267 141.651 30.34C141.091 30.94 140.811 31.8133 140.811 32.96V39H139.011V32.8C139.011 31.7067 138.737 30.8733 138.191 30.3C137.657 29.7133 136.931 29.42 136.011 29.42C135.064 29.42 134.311 29.7267 133.751 30.34C133.191 30.94 132.911 31.8133 132.911 32.96V39H131.091V28.04H132.911V29.62C133.271 29.0467 133.751 28.6067 134.351 28.3C134.964 27.9933 135.637 27.84 136.371 27.84C137.291 27.84 138.104 28.0467 138.811 28.46C139.517 28.8733 140.044 29.48 140.391 30.28C140.697 29.5067 141.204 28.9067 141.911 28.48C142.617 28.0533 143.404 27.84 144.271 27.84ZM161.696 33.1C161.696 33.4467 161.676 33.8133 161.636 34.2H152.876C152.943 35.28 153.31 36.1267 153.976 36.74C154.656 37.34 155.476 37.64 156.436 37.64C157.223 37.64 157.876 37.46 158.396 37.1C158.93 36.7267 159.303 36.2333 159.516 35.62H161.476C161.183 36.6733 160.596 37.5333 159.716 38.2C158.836 38.8533 157.743 39.18 156.436 39.18C155.396 39.18 154.463 38.9467 153.636 38.48C152.823 38.0133 152.183 37.3533 151.716 36.5C151.25 35.6333 151.016 34.6333 151.016 33.5C151.016 32.3667 151.243 31.3733 151.696 30.52C152.15 29.6667 152.783 29.0133 153.596 28.56C154.423 28.0933 155.37 27.86 156.436 27.86C157.476 27.86 158.396 28.0867 159.196 28.54C159.996 28.9933 160.61 29.62 161.036 30.42C161.476 31.2067 161.696 32.1 161.696 33.1ZM159.816 32.72C159.816 32.0267 159.663 31.4333 159.356 30.94C159.05 30.4333 158.63 30.0533 158.096 29.8C157.576 29.5333 156.996 29.4 156.356 29.4C155.436 29.4 154.65 29.6933 153.996 30.28C153.356 30.8667 152.99 31.68 152.896 32.72H159.816Z" fill="white"/>
</svg>
