<svg width="31" height="30" viewBox="0 0 31 30" fill="none" xmlns="http://www.w3.org/2000/svg">
<path d="M29.3752 8.13375C29.2053 7.52779 28.8744 6.97919 28.4177 6.54625C27.948 6.10001 27.3724 5.7808 26.7452 5.61875C24.3977 5 14.9927 5 14.9927 5C11.0718 4.95539 7.15195 5.1516 3.25516 5.5875C2.6279 5.76152 2.05337 6.08786 1.58266 6.5375C1.12016 6.9825 0.785161 7.53125 0.610161 8.1325C0.189777 10.3972 -0.0144738 12.6967 0.000161127 15C-0.0148389 17.3013 0.188911 19.6 0.610161 21.8675C0.781411 22.4663 1.11516 23.0125 1.57891 23.4538C2.04266 23.895 2.62016 24.2138 3.25516 24.3825C5.63391 25 14.9927 25 14.9927 25C18.9185 25.0447 22.8434 24.8485 26.7452 24.4125C27.3724 24.2505 27.948 23.9312 28.4177 23.485C28.8802 23.0438 29.2089 22.495 29.3739 21.8975C29.8053 19.6337 30.015 17.3332 30.0002 15.0288C30.0326 12.7145 29.8231 10.4032 29.3752 8.1325V8.13375ZM12.0027 19.28V10.7213L19.8277 15.0013L12.0027 19.28Z" fill="#E6E6E6"/>
</svg>
